<?xml version="1.0" encoding="utf-8"?>
<!-- Generator: Adobe Illustrator 17.1.0, SVG Export Plug-In . SVG Version: 6.00 Build 0)  -->
<!DOCTYPE svg PUBLIC "-//W3C//DTD SVG 1.1//EN" "http://www.w3.org/Graphics/SVG/1.1/DTD/svg11.dtd">
<svg version="1.1" id="Layer_1" xmlns="http://www.w3.org/2000/svg" xmlns:xlink="http://www.w3.org/1999/xlink" x="0px" y="0px"
	 viewBox="0 0 171.2 34.8" enable-background="new 0 0 171.2 34.8" xml:space="preserve">
<g>
	<g>
		<path fill="#F3C711" d="M0,33c0.5-0.2,1.1-0.4,1.8-0.4c1-0.1,1.7-0.3,2.2-0.7c0.4-0.8,0.6-2.7,0.6-5.7v-3.2l0-2l0-1.4l0-2.6
			l-0.1-6.7c0-0.8-0.1-1.2-0.3-1.5C3.9,8.3,3,8,1.7,7.7c-0.6-0.1-0.9-0.2-1-0.3S0.5,7.1,0.4,6.8C0.7,6.7,1,6.7,1.1,6.7h1.5l0.8,0
			c0.5,0,1.1,0.1,1.7,0.2C6.2,6.9,7.5,7,8.9,7c0.4,0,0.9,0,1.6-0.1c1.9-0.1,3.2-0.2,4.1-0.2c1.7,0,3.2,0.2,4.7,0.5s3,0.9,4.5,1.8
			c1,0.6,2,1.4,3,2.7s1.8,2.5,2.3,4s0.8,3,0.8,4.8c0,1.6-0.3,3.2-0.9,4.8s-1.4,2.9-2.4,4.1s-2.1,2-3.2,2.6c-1.1,0.6-2.7,1.1-4.9,1.5
			c-0.9,0.2-2.5,0.2-4.9,0.2c-1.5,0-2.8,0-3.8-0.1c-0.4-0.1-0.8-0.1-1.2-0.1c-0.1,0-0.1,0-0.2,0l-8.4,0.2l0-0.2c0-0.1,0-0.1,0-0.2
			L0,33z M10.5,32.2c1,0.4,2.1,0.5,3.2,0.5c1.4,0,2.7-0.2,4.1-0.6c1.3-0.4,2.5-1,3.5-1.8s1.9-1.7,2.5-2.7s1.1-1.9,1.4-2.7
			c0.4-1.2,0.6-2.7,0.6-4.5c0-1.8-0.4-3.6-1.1-5.4c-0.5-1.3-1.4-2.5-2.7-3.7s-2.8-2-4.6-2.6s-3.7-0.8-5.8-0.8C10,7.9,9,8.1,8.3,8.4
			C8.2,8.5,8.1,8.6,8,8.7C8,9,7.9,9.3,7.9,9.6c0,0.2,0,0.4,0,0.6C8,11.8,8,13.1,8,14.1l0,4.7c0,6.8,0.1,10.6,0.4,11.4
			S9.3,31.6,10.5,32.2z"/>
		<path fill="#F3C711" d="M32.3,18.8l0-0.6c0.9-0.3,1.4-0.4,1.4-0.5c0.5-0.2,1-0.6,1.5-1s1-1,1.4-1.5c0.2,0,0.3,0,0.4,0l0.2,0
			c0.1,0.7,0.1,1.1,0.1,1.4c0,0.1,0,0.4,0,0.9v1.1l0,5.9l-0.1,6.3c0,0.5,0.1,0.9,0.2,1.1c0.2,0.2,0.7,0.4,1.6,0.7
			c0.5,0.2,1,0.3,1.2,0.4c0,0.1,0.1,0.2,0.1,0.2c0,0.1,0,0.2-0.1,0.3c-0.5,0-1.2,0-2.1-0.1c-1.1-0.1-1.9-0.1-2.3-0.1
			c-0.2,0-1.3,0-3.3,0.1c-0.4,0-0.8,0-1.2,0.1c-0.1,0-0.2,0-0.3-0.1c-0.1-0.1-0.1-0.2-0.1-0.2c0-0.2,0.1-0.3,0.4-0.5
			c0.1,0,0.8-0.2,2.1-0.5c0.4-0.1,0.7-0.2,0.9-0.4c0.2-0.3,0.3-0.7,0.3-1.4c0-1.1,0-3.9,0-8.6c0-0.9,0-1.5-0.1-1.8
			c-0.1-0.2-0.2-0.4-0.5-0.6C33.9,19.2,33.3,19,32.3,18.8z M34,8.2c0-0.5,0.2-0.8,0.5-1.2s0.8-0.5,1.3-0.5c0.5,0,1,0.2,1.3,0.6
			s0.6,0.8,0.6,1.2s-0.2,0.8-0.6,1.2S36.3,10,35.8,10s-0.9-0.2-1.3-0.5S34,8.7,34,8.2z"/>
		<path fill="#F3C711" d="M56.6,30.6c0.1,0.2,0.1,0.3,0.1,0.4c0,0.2-0.2,0.6-0.5,1.1c-0.4,0.7-0.9,1.2-1.4,1.5
			c-0.3,0.2-0.8,0.3-1.4,0.3c-1,0-1.7-0.3-2.2-0.9c-0.3-0.4-0.5-1-0.6-1.9l-2.3,1.6c-0.8,0.5-1.4,0.8-1.8,0.9
			c-0.7,0.2-1.5,0.3-2.5,0.3c-0.7,0-1.2-0.2-1.7-0.6s-0.6-1-0.6-1.6c0-0.9,0.6-2.1,1.7-3.4s2.7-2.4,4.7-3.2c1.4-0.6,2.3-1,2.6-1.1
			c0-0.5,0-0.9,0-1.5c0-1.7-0.2-2.9-0.7-3.5s-1.2-0.9-2.1-0.9c-0.9,0-1.8,0.4-2.7,1.1c-0.5,0.5-0.9,1.3-1.2,2.6
			c-0.1,0.4-0.2,0.7-0.5,1.1c-0.6,0.4-1.1,0.6-1.4,0.6c-0.3,0-0.6-0.1-0.8-0.3c-0.1-0.1-0.2-0.2-0.2-0.3c0-0.4,0.4-1.2,1.1-2.4
			s1.7-2.2,2.9-2.8s2.2-0.9,3-0.9c1.2,0,2.1,0.1,2.6,0.3s1.1,0.6,1.5,1.1s0.7,1.1,0.8,1.7c0.1,0.3,0.1,1.4,0.1,3.2l-0.1,3.3l0,2.4
			c0,0.3,0,0.6,0,0.8c0,0.4,0,0.7,0,0.9c0,0.5,0.1,0.8,0.4,1.1s0.6,0.4,0.9,0.4c0.5,0,1-0.3,1.3-0.8l0.2-0.3
			C56.2,30.7,56.4,30.6,56.6,30.6z M50.6,30c0.1-1.7,0.1-3,0.1-3.7c0-0.4,0-0.9-0.1-1.5c-0.9,0.3-1.9,0.8-2.9,1.5
			c-1,0.7-1.8,1.4-2.4,2.3c-0.4,0.6-0.7,1.2-0.7,1.8c0,0.5,0.2,1,0.5,1.3c0.4,0.4,0.8,0.5,1.4,0.5c0.4,0,0.9-0.2,1.5-0.5
			C48.9,31.4,49.8,30.8,50.6,30z"/>
		<path fill="#F3C711" d="M57,32.7c0.2-0.2,0.5-0.3,0.9-0.3c0.5-0.1,1-0.2,1.3-0.3c0.2-0.2,0.4-0.5,0.5-0.9c0.1-0.5,0.1-2.2,0.1-5.2
			c0-2.9-0.1-4.8-0.3-5.6c-0.3-0.2-0.7-0.3-1.2-0.5c-0.2,0-0.5-0.1-0.9-0.2V19c0.8-0.2,1.5-0.5,2-0.9s1.2-1.1,2.1-2.2h0.1
			c0.1,0,0.2,0,0.4,0c0.1,0,0.2,0,0.3,0.1l0,2.3c0,0.5,0,1,0,1.5c1.5-1.3,2.8-2.3,3.9-2.8c0.8-0.4,1.7-0.5,2.7-0.5
			c1.2,0,2.1,0.2,2.8,0.7c0.7,0.5,1.4,1.3,2,2.4c1.2-1.2,2.3-2,3.3-2.5s2-0.7,3-0.7c1.5,0,2.8,0.5,3.8,1.5c1,1,1.5,2.5,1.5,4.5V24
			l0,1.9l0,4.8c0,0.6,0.1,1,0.4,1.3c0.1,0,0.5,0.2,1.3,0.4c0.5,0.1,0.7,0.2,0.8,0.3s0.1,0.2,0.1,0.3c0,0.2,0,0.3-0.1,0.5h-0.1
			l-2.1-0.1c-0.2,0-0.6,0-1.2,0c-0.7,0-1.6,0-2.7,0.1h-1c-0.1,0-0.4,0-0.9,0c0-0.1,0-0.2,0-0.3c0-0.1,0-0.2,0.1-0.4
			c0.4-0.2,0.9-0.3,1.5-0.4s1-0.3,1.2-0.6c0.2-0.3,0.2-1.3,0.2-3.2c0-4,0-6.4-0.1-7c-0.2-1-0.6-1.8-1.3-2.4
			c-0.7-0.6-1.6-0.9-2.7-0.9c-0.8,0-1.6,0.2-2.4,0.6c-0.8,0.4-1.5,1.1-2.3,1.9l0,0.5v3.1l-0.1,2.4c0,2.5,0,3.9,0.1,4.2
			s0.2,0.6,0.3,0.7s0.7,0.3,1.6,0.4c0.4,0.1,0.7,0.1,0.9,0.2c0.2,0.1,0.2,0.3,0.2,0.5c0,0.2-0.1,0.3-0.2,0.4h-0.3l-1,0h-6l-1.6,0
			c0-0.2,0-0.4,0-0.5l0-0.2c0.3-0.2,0.9-0.3,1.7-0.5c0.4-0.1,0.9-0.2,1.3-0.3c0.1-0.1,0.1-0.2,0.2-0.3c0.1-0.2,0.1-0.7,0.1-1.6
			l0.1-2.4l0-2.7l0-1.5c0-1.7-0.3-2.9-1-3.7c-0.7-0.8-1.5-1.2-2.6-1.2c-1,0-1.9,0.2-2.9,0.7c-1,0.5-1.8,1.1-2.4,1.9c0,0.4,0,0.7,0,1
			l0.1,6.9c0,1.5,0.1,2.4,0.3,2.6s0.5,0.4,1.1,0.4c0.9,0.1,1.4,0.3,1.7,0.5c0.1,0.1,0.2,0.2,0.2,0.4c0,0.1,0,0.2,0,0.4
			c-1.6-0.1-2.6-0.2-3.1-0.2c-0.5,0-1,0-1.5,0l-1,0.1h-0.6L57,33.3c0-0.1,0-0.2,0-0.2C57,33,57,32.9,57,32.7z"/>
		<path fill="#F3C711" d="M117.7,32.7c0.3-0.1,0.7-0.2,1.2-0.2c0.9-0.1,1.4-0.3,1.5-0.4c0.2-0.2,0.3-0.5,0.3-1.1l0-0.7
			c0-0.3,0-0.6,0-1l0-6.3c0-0.8-0.1-1.4-0.3-1.6c-0.4-0.4-1.1-0.6-2.1-0.8v-0.7c1-0.3,1.8-0.6,2.3-1.1c0.8-0.6,1.4-1.5,2-2.5l0.7,0
			c0,0.6,0.1,1.1,0.1,1.4v1.4l0,0.4c0.2-0.1,0.4-0.2,0.6-0.4c0.8-0.6,1.7-1.1,2.5-1.5c0.9-0.4,1.6-0.7,2.3-0.8
			c0.4-0.1,0.9-0.2,1.4-0.2c1.1,0,2.1,0.3,2.9,0.9c0.8,0.6,1.3,1.3,1.6,2.1s0.4,2.4,0.4,4.9v3.1c0,0.1,0,0.4,0,0.8c0,0.5,0,1,0,1.6
			c0,1,0,1.6,0.1,1.8c0.1,0.2,0.2,0.4,0.5,0.5c1.3,0.2,2.1,0.4,2.3,0.6v0.2c0,0.1,0,0.3-0.1,0.5h-0.4l-2.7,0l-2.7,0.1
			c-1,0-1.9,0-2.7,0l-0.1-0.4c0-0.1,0-0.2,0.1-0.3c0.4-0.2,0.9-0.3,1.6-0.3c0.4,0,0.7-0.1,0.8-0.1s0.3-0.2,0.6-0.3
			c0.2-0.3,0.2-0.6,0.2-0.8c0-0.1,0-0.3,0-0.6c0-0.6-0.1-2.2-0.1-4.7v-1.1l0-1.6c0-1.8-0.4-3-1.1-3.7s-1.7-1-2.9-1
			c-0.9,0-1.8,0.2-2.7,0.6s-1.7,1-2.5,1.8c0,0.7,0,1.2,0,1.7l0.1,4.5c0,2.4,0,3.8,0.1,4.3c0,0.2,0.1,0.4,0.1,0.5
			c0.1,0.1,0.3,0.2,0.7,0.3s0.7,0.2,1.1,0.3c0.4,0.1,0.7,0.2,0.9,0.2c0.3,0.1,0.5,0.2,0.6,0.4l0,0.4h-2.2l-4.4-0.1c-1,0-1.7,0-1.9,0
			h-0.5l0-0.3C117.6,33,117.6,32.9,117.7,32.7z"/>
		<path fill="#F3C711" d="M152.5,18.5l0-0.6l0-2.4l0-4.5c0-1.3-0.1-2.1-0.4-2.4s-1.1-0.7-2.4-1c-0.1,0-0.2-0.1-0.5-0.1V7.2
			c0-0.1,0-0.3,0-0.5c1.9-0.2,3.5-0.5,4.8-1l1,0c0.1,0.9,0.1,2,0.1,3.1l-0.1,7.9l0.1,8.9l-0.1,4.7c0,1,0.1,1.5,0.2,1.6
			c0.3,0.3,0.9,0.4,1.8,0.4c0.2,0,0.5,0,0.8,0v0.4c0,0.1,0,0.2,0,0.3c-0.4,0.1-0.9,0.2-1.3,0.3l-3,0.6c-0.4,0.1-0.8,0.1-1,0.1v-2
			c-0.2,0.1-0.6,0.2-1.1,0.4c-2.1,0.9-4.1,1.4-5.9,1.4c-1.1,0-2.2-0.4-3.3-1.1s-2-1.7-2.6-2.9s-0.9-2.5-0.9-3.9
			c0-1.2,0.2-2.3,0.6-3.4s0.9-2,1.6-2.7c0.4-0.5,1-0.9,1.7-1.4s1.4-0.7,1.9-0.9c1.2-0.3,2-0.5,2.4-0.5c1.8,0,3.4,0.3,4.6,0.8
			C152,18.3,152.3,18.4,152.5,18.5z M152.5,31.2c0.1-0.9,0.1-2.8,0.1-5.7c0-2.4-0.1-3.9-0.3-4.6c-0.2-0.6-0.8-1.2-1.7-1.8
			c-0.9-0.6-1.9-0.9-3-0.9c-1.6,0-2.9,0.6-4,1.8s-1.6,3-1.6,5.4c0,2.1,0.6,3.8,1.8,5s2.6,1.9,4.4,1.9c1,0,1.9-0.1,2.8-0.4
			C151.7,31.7,152.3,31.4,152.5,31.2z"/>
		<path fill="#F3C711" d="M160.7,28.2c0.5,1.3,0.9,2.1,1.1,2.5c0.5,0.8,1.1,1.4,1.9,1.8s1.5,0.6,2.4,0.6c0.8,0,1.6-0.3,2.3-1
			c0.5-0.5,0.8-1.1,0.8-1.8c0-0.9-0.3-1.7-1-2.5c-0.6-0.7-1.9-1.4-3.7-2.1c-1.8-0.7-3-1.4-3.6-2.2S160,22,160,21
			c0-0.9,0.3-1.8,0.8-2.5s1.2-1.2,2.1-1.6s1.7-0.5,2.5-0.5c1,0,1.8,0.1,2.6,0.2c0.8,0.2,1.4,0.4,2,0.7c0.1,0.7,0.2,1.7,0.3,3.1
			l0,0.7c-0.2,0-0.3,0-0.5,0h-0.3c-0.4-1.1-1-2-1.9-2.7c-0.8-0.7-1.7-1-2.5-1c-0.8,0-1.5,0.2-2,0.7s-0.8,1.2-0.8,2
			c0,0.6,0.2,1.2,0.6,1.6s1.4,1,2.9,1.6c1.5,0.6,2.6,1.2,3.3,1.7c0.7,0.5,1.2,1.2,1.5,1.9s0.5,1.5,0.5,2.2c0,0.9-0.3,1.8-0.9,2.6
			c-0.6,0.8-1.4,1.4-2.3,1.7c-0.9,0.3-1.8,0.5-2.5,0.5c-1.7,0-3.3-0.3-4.8-1c-0.1-0.1-0.2-0.3-0.2-0.6c0-0.1,0-0.3,0-0.6
			c-0.2-1.8-0.3-2.9-0.3-3.3c0-0.2,0-0.3,0.1-0.3S160.4,28.2,160.7,28.2z"/>
	</g>
</g>
<g>
	<g>
		<polygon fill="#F3C711" points="90.2,27.3 88.8,34.8 94.9,30.1 101,14.9 		"/>
		<polygon fill="#F3C711" points="93.5,10.7 100.2,14.8 91,25.5 		"/>
		<polygon fill="#F3C711" points="101.3,15.5 108.1,19.6 96,29 		"/>
		<polygon fill="#F3C711" points="90.4,34.3 95.4,30.5 115.2,24.6 98.2,33 		"/>
		<path fill="#F3C711" d="M108.8,20.1c-0.2,0.3,6.3,3.8,6.3,3.8l-18.8,5.7L108.8,20.1z"/>
		<polygon fill="#F3C711" points="86.2,6.3 92.6,10.2 90.1,25.8 		"/>
		<polygon fill="#F3C711" points="85.8,7.9 85.8,25.1 88.3,34.5 90,27.7 		"/>
		<polygon fill="#F3C711" points="81.6,3.5 85.3,5.8 85.4,22 		"/>
		<polygon fill="#F3C711" points="116.2,24.5 119.6,26.6 100.3,32.4 		"/>
		<polygon fill="#F3C711" points="120.1,26.9 122,28.1 103.8,31.9 		"/>
		<polygon fill="#F3C711" points="79.2,2.1 81.1,3.2 84.3,20.1 		"/>
		<polygon fill="#F3C711" points="101.7,14.8 110.3,13.1 108.9,19.4 		"/>
		<polygon fill="#F3C711" points="110.8,13.4 115.8,23.6 109.5,19.8 		"/>
		<polygon fill="#F3C711" points="116.2,23.9 120.1,26.5 118.8,17.9 		"/>
		<polygon fill="#F3C711" points="97.9,5.6 93.4,10 101,14.6 		"/>
		<polygon fill="#F3C711" points="98.8,5.8 105.8,7 109.9,12.9 101.3,14.3 		"/>
		<path fill="#F3C711" d="M86.5,5.3c0.2-0.1,10.8-0.1,10.8-0.1l-4.2,4.1L86.5,5.3z"/>
		<polygon fill="#F3C711" points="107.5,8 114.5,12.3 110.7,13 		"/>
		<polygon fill="#F3C711" points="111.2,13.3 114.4,12.7 118,17.8 115.7,23.2 		"/>
		<polygon fill="#F3C711" points="119.7,20.4 120.5,26.5 122.3,27.6 		"/>
		<path fill="#F3C711" d="M97.5,2c-0.2,0.3,0.9,3,0.9,3l6.4,1.4L97.5,2z"/>
		<polygon fill="#F3C711" points="96.9,1.8 90.5,0.5 86.8,4.9 97.9,4.7 		"/>
		<polygon fill="#F3C711" points="89.7,0.9 89.6,1 85.7,5.3 81.8,3.2 		"/>
		<path fill="#F3C711" d="M91.8,0.4C91.9,0.4,94.6,0,94.6,0l2.4,1.5L91.8,0.4z"/>
		<polygon fill="#F3C711" points="79.5,1.5 81.5,3 89.5,0.7 		"/>
		<polygon fill="#F3C711" points="115.1,12.7 116.8,13.7 118.2,17 		"/>
		<polygon fill="#F3C711" points="90.2,27.3 88.8,34.8 94.9,30.1 101,14.9 		"/>
		<polygon fill="#F3C711" points="93.5,10.7 100.2,14.8 91,25.5 		"/>
		<polygon fill="#F3C711" points="101.3,15.5 108.1,19.6 96,29 		"/>
		<polygon fill="#F3C711" points="90.4,34.3 95.4,30.5 115.2,24.6 98.2,33 		"/>
		<path fill="#F3C711" d="M108.8,20.1c-0.2,0.3,6.3,3.8,6.3,3.8l-18.8,5.7L108.8,20.1z"/>
		<polygon fill="#F3C711" points="86.2,6.3 92.6,10.2 90.1,25.8 		"/>
		<polygon fill="#F3C711" points="85.8,7.9 85.8,25.1 88.3,34.5 90,27.7 		"/>
		<polygon fill="#F3C711" points="81.6,3.5 85.3,5.8 85.4,22 		"/>
		<polygon fill="#F3C711" points="116.2,24.5 119.6,26.6 100.3,32.4 		"/>
		<polygon fill="#F3C711" points="120.1,26.9 122,28.1 103.8,31.9 		"/>
		<polygon fill="#F3C711" points="79.2,2.1 81.1,3.2 84.3,20.1 		"/>
		<polygon fill="#F3C711" points="101.7,14.8 110.3,13.1 108.9,19.4 		"/>
		<polygon fill="#F3C711" points="110.8,13.4 115.8,23.6 109.5,19.8 		"/>
		<polygon fill="#F3C711" points="116.2,23.9 120.1,26.5 118.8,17.9 		"/>
		<polygon fill="#F3C711" points="97.9,5.6 93.4,10 101,14.6 		"/>
		<path fill="#F3C711" d="M93.4,10"/>
		<path fill="#F3C711" d="M86.3,5.7"/>
		<polygon fill="#F3C711" points="98.8,5.8 105.8,7 109.9,12.9 101.3,14.3 		"/>
		<path fill="#F3C711" d="M86.5,5.3c0.2-0.1,10.8-0.1,10.8-0.1l-4.2,4.1L86.5,5.3z"/>
		<polygon fill="#F3C711" points="107.5,8 114.5,12.3 110.7,13 		"/>
		<polygon fill="#F3C711" points="111.2,13.3 114.4,12.7 118,17.8 115.7,23.2 		"/>
		<polygon fill="#F3C711" points="119.7,20.4 120.5,26.5 122.3,27.6 		"/>
		<path fill="#F3C711" d="M97.5,2c-0.2,0.3,0.9,3,0.9,3l6.4,1.4L97.5,2z"/>
		<polygon fill="#F3C711" points="96.9,1.8 90.5,0.5 86.8,4.9 97.9,4.7 		"/>
		<polygon fill="#F3C711" points="89.7,0.9 89.6,1 85.7,5.3 81.8,3.2 		"/>
		<path fill="#F3C711" d="M91.8,0.4C91.9,0.4,94.6,0,94.6,0l2.4,1.5L91.8,0.4z"/>
		<polygon fill="#F3C711" points="79.5,1.5 81.5,3 89.5,0.7 		"/>
		<polygon fill="#F3C711" points="115.1,12.7 116.8,13.7 118.2,17 		"/>
	</g>
</g>
</svg>
